<?xml version="1.0" encoding="UTF-8" standalone="no"?>
<!-- Created with Inkscape (http://www.inkscape.org/) -->

<svg
   xmlns:dc="http://purl.org/dc/elements/1.1/"
   xmlns:cc="http://creativecommons.org/ns#"
   xmlns:rdf="http://www.w3.org/1999/02/22-rdf-syntax-ns#"
   xmlns:svg="http://www.w3.org/2000/svg"
   xmlns="http://www.w3.org/2000/svg"
   xmlns:xlink="http://www.w3.org/1999/xlink"
   xmlns:sodipodi="http://sodipodi.sourceforge.net/DTD/sodipodi-0.dtd"
   xmlns:inkscape="http://www.inkscape.org/namespaces/inkscape"
   version="1.1"
   id="svg3713"
   xml:space="preserve"
   width="1122.52"
   height="793.70667"
   viewBox="0 0 1122.52 793.70667"
   sodipodi:docname="DTemplar_Logo_Noir.svg"
   inkscape:version="0.92.4 (5da689c313, 2019-01-14)"><metadata
     id="metadata3719"><rdf:RDF><cc:Work
         rdf:about=""><dc:format>image/svg+xml</dc:format><dc:type
           rdf:resource="http://purl.org/dc/dcmitype/StillImage" /><dc:title></dc:title></cc:Work></rdf:RDF></metadata><defs
     id="defs3717"><clipPath
       clipPathUnits="userSpaceOnUse"
       id="clipPath3729"><path
         d="M 0,595.28 H 841.89 V 0 H 0 Z"
         id="path3727"
         inkscape:connector-curvature="0" /></clipPath><clipPath
       clipPathUnits="userSpaceOnUse"
       id="clipPath3745"><path
         d="m 99.287,431.49 c 0,-14.877 -12.48,-27.358 -27.356,-27.358 v 0 -41.938 c 0,-68.292 30.926,-127.36 88.254,-164.474 v 0 c 57.328,37.113 88.255,97.034 88.255,165.327 v 0 41.085 c -14.877,0 -27.357,12.481 -27.357,27.358 v 0 z"
         id="path3743"
         inkscape:connector-curvature="0" /></clipPath><clipPath
       clipPathUnits="userSpaceOnUse"
       id="clipPath3753"><path
         d="M -41.04,520.16 H 355.2 V 109.04 H -41.04 Z"
         id="path3751"
         inkscape:connector-curvature="0" /></clipPath><clipPath
       clipPathUnits="userSpaceOnUse"
       id="clipPath3757"><path
         d="M -41.04,520.16 H 355.2 V 109.04 H -41.04 Z"
         id="path3755"
         inkscape:connector-curvature="0" /></clipPath><mask
       maskUnits="userSpaceOnUse"
       x="0"
       y="0"
       width="1"
       height="1"
       id="mask3759"><g
         id="g3769"><g
           clip-path="url(#clipPath3757)"
           id="g3767"><g
             id="g3765"><g
               transform="matrix(396.23999,0,0,411.11999,-41.040001,109.03998)"
               id="g3763"><image
                 sodipodi:absref="D:\q_bed\OneDrive\Data templar\20-Site web\logo\version anne laure\DTemplar_Logo_Noir_img0.png"
                 xlink:href="DTemplar_Logo_Noir_img0.png"
                 id="image3761"
                 transform="matrix(1,0,0,-1,0,1)"
                 preserveAspectRatio="none"
                 style="image-rendering:optimizeSpeed"
                 height="1"
                 width="1" /></g></g></g></g></mask><mask
       maskUnits="userSpaceOnUse"
       x="0"
       y="0"
       width="1"
       height="1"
       id="mask3771"><image
         sodipodi:absref="D:\q_bed\OneDrive\Data templar\20-Site web\logo\version anne laure\DTemplar_Logo_Noir_img1.png"
         xlink:href="DTemplar_Logo_Noir_img1.png"
         id="image3773"
         preserveAspectRatio="none"
         style="image-rendering:optimizeSpeed"
         height="1"
         width="1" /></mask><clipPath
       clipPathUnits="userSpaceOnUse"
       id="clipPath3799"><path
         d="M 0,595.28 H 841.89 V 0 H 0 Z"
         id="path3797"
         inkscape:connector-curvature="0" /></clipPath></defs><sodipodi:namedview
     pagecolor="#ffffff"
     bordercolor="#666666"
     borderopacity="1"
     objecttolerance="10"
     gridtolerance="10"
     guidetolerance="10"
     inkscape:pageopacity="0"
     inkscape:pageshadow="2"
     inkscape:window-width="640"
     inkscape:window-height="480"
     id="namedview3715"
     showgrid="false"
     inkscape:zoom="0.29733907"
     inkscape:cx="561.26001"
     inkscape:cy="396.85333"
     inkscape:window-x="2456"
     inkscape:window-y="245"
     inkscape:window-maximized="0"
     inkscape:current-layer="g3721" /><g
     id="g3721"
     inkscape:groupmode="layer"
     inkscape:label="DTemplar_Logo_Noir"
     transform="matrix(1.3333333,0,0,-1.3333333,0,793.70667)"><g
       id="g3723"><g
         id="g3725"
         clip-path="url(#clipPath3729)"><g
           id="g3731"
           transform="translate(256.1689,363.4367)"><path
             d="m 0,0 c 0,-35.134 -8.873,-70.02 -25.659,-100.884 -16.708,-30.72 -41.018,-57.023 -70.325,-76.096 -29.308,19.073 -53.618,45.376 -70.325,76.095 -16.786,30.865 -25.659,65.75 -25.659,100.885 v 45.479 c 15.444,0.402 27.934,12.892 28.336,28.336 H -28.336 C -27.934,58.371 -15.444,45.881 0,45.479 Z m 0.767,47.004 c -15.207,0 -27.579,12.371 -27.579,27.579 v 0.767 h -138.345 v -0.767 c 0,-15.208 -12.371,-27.579 -27.578,-27.579 h -0.767 V 0 c 0,-35.39 8.937,-70.529 25.845,-101.618 16.908,-31.089 41.549,-57.687 71.256,-76.92 l 0.417,-0.27 0.417,0.27 c 29.708,19.233 54.347,45.831 71.255,76.92 C -7.403,-70.529 1.534,-35.39 1.534,0 v 47.004 z"
             style="fill:#140e0c;fill-opacity:1;fill-rule:nonzero;stroke:none"
             id="path3733"
             inkscape:connector-curvature="0" /></g><g
           id="g3735"
           transform="translate(245.2881,363.4358)"><path
             d="m 0,0 c 0,-65.317 -31.773,-126.401 -85.103,-163.846 -53.33,37.444 -85.103,98.529 -85.103,163.846 v 36.322 c 12.642,3.869 22.744,13.972 26.614,26.614 H -26.614 C -22.744,50.293 -12.642,40.191 0,36.322 Z m 3.878,41.797 c -12.286,2.911 -22.106,12.731 -25.017,25.017 l -0.574,2.425 h -126.78 l -0.574,-2.425 c -2.912,-12.286 -12.731,-22.106 -25.017,-25.017 l -2.425,-0.574 V 0 c 0,-68.122 33.504,-131.778 89.623,-170.281 l 1.783,-1.223 1.783,1.223 C -27.201,-131.778 6.303,-68.122 6.303,0 v 41.223 z"
             style="fill:#140e0c;fill-opacity:1;fill-rule:nonzero;stroke:none"
             id="path3737"
             inkscape:connector-curvature="0" /></g></g></g><g
       id="g3739"><g
         id="g3741"
         clip-path="url(#clipPath3745)"><g
           id="g3747"><g
             id="g3749" /><g
             id="g3787"><g
               clip-path="url(#clipPath3753)"
               id="g3785"
               style="opacity:0.27999902"><g
                 id="g3783"><g
                   id="g3775" /><g
                   mask="url(#mask3759)"
                   id="g3781"><g
                     transform="matrix(396.23999,0,0,411.11999,-41.040001,109.03998)"
                     id="g3779"><image
                       sodipodi:absref="D:\q_bed\OneDrive\Data templar\20-Site web\logo\version anne laure\DTemplar_Logo_Noir_img2.png"
                       xlink:href="DTemplar_Logo_Noir_img2.png"
                       id="image3777"
                       mask="url(#mask3771)"
                       transform="matrix(1,0,0,-1,0,1)"
                       preserveAspectRatio="none"
                       style="image-rendering:optimizeSpeed"
                       height="1"
                       width="1" /></g></g></g></g></g></g><g
           id="g3789"
           transform="translate(272.5396,276.6716)"><path
             d="m 0,0 6.688,-56.84 -25.722,-29.874 z m -20.973,-88.396 -59.967,29.5 79.968,61.623 z m -87.724,-25.868 11.118,22.6 15.302,31.104 0.067,-0.097 0.227,0.563 59.433,-29.236 z m -1.683,0.053 -42.48,40.273 69.1,13.84 -14.839,-30.163 z m -63.823,-30.23 -43.389,60.703 105.295,-31.898 z m -16.318,136.803 28.744,-53.778 6.119,-11.449 -62.696,-8.552 z m -56.559,30.474 54.854,21.96 0.796,-49.338 z m 12.554,65.171 41.687,-41.804 -55.08,-22.051 z m -59.518,22.776 99.227,35.291 -40.455,-55.608 z m 100.567,34.526 1.21,-97.508 -41.713,41.832 z m -58.191,32.163 68.296,38.43 -9.971,-67.123 z m 69.794,38.07 49.772,-59.224 -59.728,-7.798 z m 78.676,-2.336 -27.585,-56.074 -49.891,59.367 z m 0.917,-1.612 16.203,-76.472 -43.441,20.941 0.39,0.643 -0.164,-0.021 z m 61.291,-81.416 -43.31,4.276 -0.115,1.213 -0.168,-0.204 -15.926,75.168 z m -4.092,54.894 1.243,-13.971 3.487,-39.207 -59.144,79.946 z m 51.67,-25.418 -45.282,-29.079 -3.543,39.834 -1.234,13.871 z M 17.647,100.353 -27.007,67.694 -38.309,127.879 Z M -50.214,18.519 -27.567,64.556 -1.127,5.766 Z M -60.619,-7.106 -50.858,17.101 -1.48,4.271 -80.618,-56.711 Z m -58.095,2.674 0.923,0.028 -0.627,0.436 65.78,20.759 -14.186,-35.184 -15.736,-39.03 z m -1.316,-0.793 36.359,-53.292 -69.416,-13.902 z m -34.404,-69.931 0.2,0.406 41.201,-39.061 -102.908,31.174 61.054,8.328 z m 33.046,70.646 -33.102,-67.287 -6.922,12.952 -27.969,52.33 z m -1.096,1.503 -67.403,-1.986 -0.798,49.43 z m -45.459,99.827 -0.134,-0.013 0.416,-0.648 -0.551,-0.909 0.156,0.017 -22.693,-46.129 -1.181,95.186 z m 13.911,21.8 -12.662,-20.869 -24.871,49.256 59.467,7.764 z m 41.565,-16.095 -48.474,-4.985 -4.359,-0.448 12.697,20.926 21.809,35.943 z m 1.321,0.865 -18.117,50.846 43.043,-20.749 z m 31.781,-37.273 -25.168,28.987 -5.877,6.77 24.817,29.964 z m -3.821,66.685 43.133,-4.259 0.055,-0.629 0.109,0.069 11.068,-58.936 z m 54.055,-65.757 -48.551,-2.435 -6.329,66.796 z m -47.939,-3.94 48.27,2.42 -22.58,-45.9 z m -57.277,-13.376 55.598,13.202 25.668,-43.444 z m -1.433,-1.103 82.102,-30.554 -65.958,-20.815 z m -2.481,0.404 -0.128,-0.26 0.889,0.21 15.958,-50.774 -67.716,47.108 z m -0.065,1.533 -51.871,-3.778 23.53,47.829 z m 27.089,49.923 6.064,-6.985 25.387,-29.24 -55.789,-13.247 z m -25.834,-49.037 -28.364,44.087 52.719,5.421 z M -0.059,7.13 -26.581,66.104 17.991,98.703 Z M 19.391,97.875 48.568,28.805 1.278,5.979 Z M 1.055,4.167 l 49.494,23.89 -30.628,72.507 0.334,1.696 -1.21,-0.885 -56.833,27.958 47.491,30.498 -54.944,27.029 -56.076,27.587 -0.383,1.804 -0.64,-1.301 -2.144,1.055 0.922,-1.247 -78.451,3.334 -0.878,1.045 -0.195,-1.313 -71.872,-40.444 60.251,-29.638 -103.972,-36.979 62.804,-21.712 -13.756,-65.584 -1.217,-0.488 59.243,-29.143 -28.386,-75.246 -1.47,0.446 1.072,-1.501 -0.31,-0.82 0.817,0.111 45.172,-63.195 64.408,29.969 0.378,-0.358 0.31,0.63 88.155,25.516 -0.375,-1.706 1.833,2.128 1.684,0.488 -0.889,0.436 27.496,31.936 z"
             style="fill:#140e0c;fill-opacity:1;fill-rule:nonzero;stroke:none"
             id="path3791"
             inkscape:connector-curvature="0" /></g></g></g><g
       id="g3793"><g
         id="g3795"
         clip-path="url(#clipPath3799)"><g
           id="g3801"
           transform="translate(106.6973,379.8752)"><path
             d="m 0,0 c -3.631,0 -6.575,-2.944 -6.575,-6.575 0,-3.631 2.944,-6.575 6.575,-6.575 3.631,0 6.575,2.944 6.575,6.575 C 6.575,-2.944 3.631,0 0,0"
             style="fill:#140e0c;fill-opacity:1;fill-rule:nonzero;stroke:none"
             id="path3803"
             inkscape:connector-curvature="0" /></g><g
           id="g3805"
           transform="translate(135.1143,332.7029)"><path
             d="m 0,0 c -3.631,0 -6.575,-2.944 -6.575,-6.575 0,-3.631 2.944,-6.574 6.575,-6.574 3.631,0 6.575,2.943 6.575,6.574 C 6.575,-2.944 3.631,0 0,0"
             style="fill:#140e0c;fill-opacity:1;fill-rule:nonzero;stroke:none"
             id="path3807"
             inkscape:connector-curvature="0" /></g><g
           id="g3809"
           transform="translate(194.5444,410.5266)"><path
             d="m 0,0 c 0,3.631 -2.943,6.575 -6.575,6.575 -3.631,0 -6.574,-2.944 -6.574,-6.575 0,-3.631 2.943,-6.575 6.574,-6.575 C -2.943,-6.575 0,-3.631 0,0"
             style="fill:#140e0c;fill-opacity:1;fill-rule:nonzero;stroke:none"
             id="path3811"
             inkscape:connector-curvature="0" /></g><g
           id="g3813"
           transform="translate(194.5444,347.1955)"><path
             d="m 0,0 c -3.631,0 -6.575,-2.944 -6.575,-6.575 0,-3.631 2.944,-6.574 6.575,-6.574 3.631,0 6.575,2.943 6.575,6.574 C 6.575,-2.944 3.631,0 0,0"
             style="fill:#140e0c;fill-opacity:1;fill-rule:nonzero;stroke:none"
             id="path3815"
             inkscape:connector-curvature="0" /></g><g
           id="g3817"
           transform="translate(220.6426,300.6902)"><path
             d="m 0,0 c -3.631,0 -6.575,-2.943 -6.575,-6.574 0,-3.632 2.944,-6.575 6.575,-6.575 3.631,0 6.575,2.943 6.575,6.575 C 6.575,-2.943 3.631,0 0,0"
             style="fill:#140e0c;fill-opacity:1;fill-rule:nonzero;stroke:none"
             id="path3819"
             inkscape:connector-curvature="0" /></g><g
           id="g3821"
           transform="translate(153.145,279.0769)"><path
             d="m 0,0 c -3.622,-0.257 -6.35,-3.401 -6.093,-7.023 0.257,-3.623 3.401,-6.35 7.023,-6.093 3.622,0.257 6.35,3.4 6.093,7.022 C 6.767,-2.472 3.622,0.257 0,0"
             style="fill:#140e0c;fill-opacity:1;fill-rule:nonzero;stroke:none"
             id="path3823"
             inkscape:connector-curvature="0" /></g><g
           id="g3825"
           transform="translate(161.543,385.2741)"><path
             d="m 0,0 c -3.631,0 -6.575,-2.943 -6.575,-6.575 0,-3.631 2.944,-6.574 6.575,-6.574 3.631,0 6.575,2.943 6.575,6.574 C 6.575,-2.943 3.631,0 0,0"
             style="fill:#140e0c;fill-opacity:1;fill-rule:nonzero;stroke:none"
             id="path3827"
             inkscape:connector-curvature="0" /></g><g
           id="g3829"
           transform="translate(208.4106,219.445)"><path
             d="m 0,0 1.153,0.648 c 8.926,6.586 41.608,46.375 52.597,60.548 1.623,2.256 2.937,4.059 3.788,5.221 0.577,0.788 15.231,1.929 15.231,1.929 V -5.996 L 70.52,-7.859 61.718,-8.502 v -5.396 h 34.374 v 5.396 l -8.867,0.643 -2.183,1.863 v 74.342 h 20.11 l 1.864,-1.992 1.799,-12.208 h 7.261 V 74.385 H 44.592 C 41.838,63.929 20.513,22.112 0,0"
             style="fill:#140e0c;fill-opacity:1;fill-rule:nonzero;stroke:none"
             id="path3831"
             inkscape:connector-curvature="0" /></g><g
           id="g3833"
           transform="translate(366.4077,376.8733)"><path
             d="m 0,0 12.296,-33.101 h -24.068 z m -36.715,-68.534 h 23.369 v 4.896 l -7.75,0.582 -1.224,1.69 8.508,22.787 h 28.148 l 8.625,-22.787 -0.874,-1.69 -7.401,-0.582 v -4.896 h 27.099 v 4.896 L 34.617,-62.182 6.002,12.53 h -7.867 l -27.973,-74.712 -6.877,-1.456 z"
             style="fill:#140e0c;fill-opacity:1;fill-rule:nonzero;stroke:none"
             id="path3835"
             inkscape:connector-curvature="0" /></g><g
           id="g3837"
           transform="translate(403.938,381.1277)"><path
             d="M 0,0 1.69,1.807 H 19.931 V -65.62 l -2.04,-1.69 -7.984,-0.583 v -4.895 h 31.178 v 4.895 l -8.042,0.583 -1.981,1.69 V 1.807 h 18.24 L 50.994,0 52.625,-11.073 H 59.21 V 7.285 H -8.217 v -18.358 h 6.527 z"
             style="fill:#140e0c;fill-opacity:1;fill-rule:nonzero;stroke:none"
             id="path3839"
             inkscape:connector-curvature="0" /></g><g
           id="g3841"
           transform="translate(487.7412,376.8733)"><path
             d="m 0,0 12.296,-33.101 h -24.068 z m -36.715,-63.638 v -4.896 h 23.369 v 4.896 l -7.751,0.582 -1.223,1.69 8.508,22.787 h 28.148 l 8.625,-22.787 -0.874,-1.69 -7.401,-0.582 v -4.896 h 27.098 v 4.896 L 34.616,-62.182 6.003,12.53 h -7.868 l -27.973,-74.712 z"
             style="fill:#140e0c;fill-opacity:1;fill-rule:nonzero;stroke:none"
             id="path3843"
             inkscape:connector-curvature="0" /></g><g
           id="g3845"
           transform="translate(381.0156,213.6521)"><path
             d="m 0,0 -1.69,-1.923 h -31.994 v 33.45 h 19.581 l 1.69,-1.806 1.165,-8.625 h 5.653 v 26.283 h -5.653 l -1.165,-8.683 -1.69,-1.69 h -19.581 v 30.187 h 27.623 l 1.632,-1.806 1.69,-10.141 h 6.702 v 17.425 h -57.17 v -4.778 l 6.76,-0.7 2.04,-1.69 V -0.233 l -2.04,-1.69 -6.76,-0.583 V -7.401 H 8.217 V 12.063 H 2.04 Z"
             style="fill:#140e0c;fill-opacity:1;fill-rule:nonzero;stroke:none"
             id="path3847"
             inkscape:connector-curvature="0" /></g><g
           id="g3849"
           transform="translate(466.625,282.6521)"><path
             d="M 0,0 -22.67,-59.442 -45.107,0.466 v 3.205 h -25.351 v -4.778 l 7.926,-0.7 1.515,-1.69 v -64.804 l -2.156,-2.272 -7.168,-0.933 v -4.895 h 25.234 v 4.895 l -7.285,0.933 -2.156,2.272 v 65.154 l 27.216,-73.254 h 5.128 L 6.061,-1.923 v -67.31 l -1.165,-1.69 -7.868,-0.583 v -4.895 h 28.497 v 4.895 l -7.517,0.583 -1.457,1.69 v 65.736 l 1.457,1.69 7.517,0.7 V 3.671 L 0,3.671 Z"
             style="fill:#140e0c;fill-opacity:1;fill-rule:nonzero;stroke:none"
             id="path3851"
             inkscape:connector-curvature="0" /></g><g
           id="g3853"
           transform="translate(542.9395,247.2195)"><path
             d="m 0,0 c -3.555,-3.458 -8.732,-5.187 -15.531,-5.187 -0.739,0 -1.7,0.048 -2.885,0.146 -1.186,0.097 -2.865,0.263 -5.041,0.495 v 37.939 c 0.777,0.077 1.603,0.135 2.478,0.174 0.874,0.038 2.126,0.059 3.758,0.059 7.693,0 13.374,-1.516 17.046,-4.546 C 3.496,26.05 5.332,21.368 5.332,15.035 5.332,8.47 3.555,3.457 0,0 m 8.8,33.451 c -5.071,3.768 -13.589,5.653 -25.555,5.653 h -27.216 v -4.779 l 7.751,-0.699 2.04,-1.69 v -65.737 l -2.04,-1.689 -6.759,-0.583 v -4.896 h 30.071 v 4.896 l -8.509,0.583 -2.04,1.689 0.059,23.486 c 2.175,-0.195 3.962,-0.34 5.361,-0.437 1.398,-0.098 2.583,-0.145 3.555,-0.145 9.441,0 16.949,2.331 22.524,6.993 5.574,4.662 8.363,10.878 8.363,18.648 0,8.702 -2.535,14.939 -7.605,18.707"
             style="fill:#140e0c;fill-opacity:1;fill-rule:nonzero;stroke:none"
             id="path3855"
             inkscape:connector-curvature="0" /></g><g
           id="g3857"
           transform="translate(614.7656,213.6521)"><path
             d="m 0,0 -1.69,-1.923 h -26.983 v 67.426 l 2.04,1.69 6.819,0.7 v 4.778 h -29.139 v -4.778 l 7.517,-0.7 2.04,-1.69 V -0.233 l -2.04,-1.69 -7.517,-0.583 V -7.401 H 8.217 V 14.336 H 2.039 Z"
             style="fill:#140e0c;fill-opacity:1;fill-rule:nonzero;stroke:none"
             id="path3859"
             inkscape:connector-curvature="0" /></g><g
           id="g3861"
           transform="translate(649.6826,241.6833)"><path
             d="M 0,0 11.772,33.102 24.068,0 Z M 17.775,45.631 H 9.907 l -27.972,-74.711 -6.877,-1.457 v -4.896 h 23.369 v 4.896 l -7.751,0.583 -1.224,1.689 8.509,22.786 h 28.147 l 8.625,-22.786 -0.874,-1.689 -7.401,-0.583 v -4.896 h 27.099 v 4.896 l -7.168,1.457 z"
             style="fill:#140e0c;fill-opacity:1;fill-rule:nonzero;stroke:none"
             id="path3863"
             inkscape:connector-curvature="0" /></g><g
           id="g3865"
           transform="translate(731.0283,247.5105)"><path
             d="m 0,0 c -1.011,0 -2.06,0.01 -3.147,0.029 -1.088,0.02 -2.235,0.049 -3.439,0.088 v 33.218 h 5.77 c 7.731,0 13.325,-1.339 16.784,-4.015 3.457,-2.676 5.186,-6.98 5.186,-12.914 0,-5.74 -1.68,-9.91 -5.041,-12.509 C 12.752,1.299 7.381,0 0,0 m 47.146,-36.598 c -4.935,0 -8.451,0.593 -10.548,1.78 -2.098,1.185 -3.75,3.412 -4.953,6.678 -0.545,1.361 -1.283,4.113 -2.215,8.254 -0.933,4.142 -2.06,7.282 -3.38,9.422 -1.166,1.944 -2.76,3.568 -4.779,4.87 -2.021,1.303 -4.527,2.363 -7.518,3.18 6.41,1.396 11.227,3.755 14.453,7.074 3.224,3.319 4.837,7.561 4.837,12.725 0,7.259 -2.352,12.644 -7.052,16.158 -4.701,3.513 -11.928,5.27 -21.679,5.27 h -30.42 v -4.779 l 6.759,-0.699 2.04,-1.69 v -65.737 l -2.04,-1.689 -6.759,-0.583 v -4.896 h 28.38 v 4.896 l -6.818,0.583 -2.04,1.689 v 28.381 l 0.408,0.059 c 2.565,0.116 4.429,0.174 5.595,0.174 5.478,0 9.566,-0.932 12.268,-2.797 2.699,-1.865 4.845,-5.226 6.439,-10.081 0.427,-1.283 0.99,-3.226 1.689,-5.829 1.866,-7.226 4.216,-12.083 7.052,-14.569 1.36,-1.165 3.021,-2.03 4.983,-2.594 1.962,-0.562 4.322,-0.844 7.081,-0.844 1.359,0 2.797,0.088 4.312,0.262 1.516,0.175 3.166,0.437 4.954,0.786 v 4.546 z"
             style="fill:#140e0c;fill-opacity:1;fill-rule:nonzero;stroke:none"
             id="path3867"
             inkscape:connector-curvature="0" /></g><g
           id="g3869"
           transform="translate(272.8325,388.8767)"><path
             d="m 0,0 h 10.409 c 12.08,0 21.065,-3.139 26.954,-9.413 5.889,-6.276 8.836,-15.817 8.836,-28.625 0,-12.808 -2.968,-22.371 -8.9,-28.689 -5.934,-6.318 -14.897,-7.771 -26.89,-7.771 H -1.706 Z m -9.824,-82.244 c 5.037,1.238 20.747,0 20.747,0 7.881,0 14.243,0.632 19.083,1.896 4.841,1.263 9.188,3.351 13.044,6.265 5.44,4.111 9.542,9.198 12.304,15.259 2.763,6.061 4.145,12.99 4.145,20.786 0,14.007 -4.241,24.855 -12.722,32.544 -8.482,7.689 -21.126,10.378 -35.854,14.946 -6.857,2.127 -21.971,11.132 -21.971,11.132 0.8,-4.553 6.37,-72.316 -6.77,-108.497 0,0 5.025,4.94 7.994,5.669"
             style="fill:#140e0c;fill-opacity:1;fill-rule:nonzero;stroke:none"
             id="path3871"
             inkscape:connector-curvature="0" /></g></g></g></g></svg>