<?xml version="1.0" standalone="no"?>
<!DOCTYPE svg PUBLIC "-//W3C//DTD SVG 20010904//EN"
 "http://www.w3.org/TR/2001/REC-SVG-20010904/DTD/svg10.dtd">
<svg version="1.0" xmlns="http://www.w3.org/2000/svg"
 width="1123.000000pt" height="1123.000000pt" viewBox="0 0 1123.000000 1123.000000"
 preserveAspectRatio="xMidYMid meet">
<metadata>
Created by potrace 1.11, written by Peter Selinger 2001-2013
</metadata>
<g transform="translate(0.000000,1123.000000) scale(0.100000,-0.100000)"
fill="#000000" stroke="none">
<path d="M3779 9023 c-1 -53 -2 -60 -24 -171 -19 -99 -108 -255 -195 -342 -74
-74 -241 -172 -316 -186 -15 -3 -30 -7 -34 -9 -10 -6 -101 -18 -147 -19 -24 0
-44 -5 -47 -11 -6 -16 1 -1542 8 -1615 3 -36 8 -94 10 -130 5 -74 18 -191 32
-290 3 -19 7 -51 10 -70 10 -76 32 -201 49 -285 5 -22 9 -47 10 -55 1 -8 5
-22 8 -30 3 -8 8 -28 11 -45 3 -16 15 -68 26 -115 11 -47 22 -89 23 -95 1 -5
6 -16 10 -22 5 -7 6 -13 3 -13 -3 0 1 -18 9 -40 8 -22 12 -40 9 -40 -2 0 0 -8
5 -18 6 -11 12 -30 15 -43 8 -43 139 -425 166 -484 5 -11 27 -63 48 -115 74
-177 203 -444 271 -558 17 -29 31 -57 31 -62 0 -6 5 -10 10 -10 6 0 10 -5 10
-11 0 -18 216 -361 231 -367 5 -2 9 -8 9 -13 0 -20 319 -438 342 -447 4 -2 8
-8 8 -12 0 -5 10 -20 23 -32 12 -13 60 -66 107 -118 207 -229 539 -538 714
-665 16 -11 33 -25 40 -30 27 -25 209 -157 293 -213 87 -58 114 -67 133 -42 3
3 54 39 113 79 87 60 184 130 272 198 27 21 171 139 181 148 6 5 34 30 63 55
77 66 113 100 241 224 160 156 256 259 400 431 23 28 51 61 62 73 46 55 236
314 298 407 235 352 435 736 587 1130 36 92 159 458 168 498 2 12 16 65 30
117 14 52 27 104 30 115 2 11 6 29 9 40 14 59 46 214 50 240 2 17 5 30 6 30 2
0 6 25 13 75 3 19 8 49 10 65 5 27 23 156 32 225 2 14 6 59 10 100 4 41 9 89
11 105 18 167 27 1722 11 1732 -5 3 -32 7 -60 9 -206 14 -385 104 -520 261
-109 128 -168 280 -178 461 l-3 42 -1873 0 -1873 0 -1 -37z m3709 -37 c13
-183 83 -347 204 -477 132 -142 315 -235 497 -253 29 -3 55 -7 58 -9 5 -6 3
-1396 -2 -1497 -7 -141 -14 -236 -20 -281 -3 -24 -8 -69 -11 -99 -2 -30 -7
-68 -10 -85 -6 -32 -12 -80 -19 -135 -2 -19 -7 -46 -10 -60 -3 -14 -10 -54
-16 -90 -5 -36 -14 -81 -19 -100 -5 -19 -12 -51 -14 -70 -3 -19 -12 -60 -20
-90 -8 -30 -17 -66 -20 -80 -6 -37 -64 -246 -88 -320 -50 -158 -102 -307 -115
-332 -7 -15 -14 -31 -14 -35 -1 -5 -5 -18 -10 -31 -5 -13 -9 -25 -9 -28 0 -2
-9 -23 -19 -47 -11 -23 -43 -96 -71 -162 -55 -127 -130 -280 -200 -411 -63
-116 -221 -378 -231 -382 -5 -2 -9 -8 -9 -14 0 -8 -165 -250 -195 -285 -5 -7
-18 -23 -27 -35 -78 -102 -138 -177 -160 -200 -10 -10 -18 -22 -18 -28 0 -5
-4 -10 -8 -10 -4 0 -22 -19 -40 -42 -90 -117 -397 -428 -571 -578 -36 -30 -69
-59 -75 -65 -74 -67 -337 -267 -474 -360 l-99 -66 -119 82 c-113 78 -313 226
-324 239 -3 3 -32 28 -65 54 -200 161 -440 391 -637 612 -58 65 -117 133 -130
149 -12 17 -31 39 -41 50 -76 82 -335 448 -443 627 -116 191 -344 626 -344
656 0 6 -24 59 -57 124 -8 15 -13 29 -12 30 1 2 -5 19 -14 39 -34 83 -118 322
-152 433 -19 65 -37 122 -40 126 -2 3 -6 17 -9 31 -2 13 -18 76 -34 139 -47
183 -95 427 -117 590 -3 25 -8 56 -10 70 -4 24 -10 76 -20 170 -3 25 -8 81
-10 125 -3 44 -8 114 -11 155 -8 105 -11 1499 -3 1511 3 5 21 11 40 14 91 10
126 17 190 40 283 99 491 355 524 645 4 30 8 60 10 66 2 8 507 11 1832 11
l1829 1 2 -32z"/>
<path d="M3929 8855 c-74 -289 -241 -505 -486 -629 -29 -14 -55 -26 -58 -27
-2 0 -21 -7 -42 -15 -39 -17 -41 -17 -115 -35 l-48 -11 0 -51 c-2 -217 2
-1275 5 -1327 3 -62 12 -181 20 -280 5 -59 14 -137 20 -175 3 -16 7 -50 10
-75 5 -39 29 -186 40 -245 5 -29 45 -214 56 -260 5 -22 12 -51 15 -65 3 -14
12 -50 21 -80 9 -30 17 -59 18 -65 3 -36 149 -471 184 -550 8 -18 22 -53 26
-65 2 -6 19 -45 51 -118 13 -29 24 -55 24 -58 0 -10 187 -380 213 -421 15 -24
27 -45 27 -47 0 -16 266 -434 312 -491 4 -5 54 -71 110 -145 56 -74 106 -140
112 -146 6 -6 31 -35 56 -65 175 -209 431 -466 661 -660 152 -129 472 -369
493 -369 19 0 369 262 496 370 28 25 62 53 74 63 134 115 394 375 521 522 28
32 55 63 60 69 6 6 37 45 69 86 33 41 63 77 66 80 13 11 220 300 275 385 144
222 351 600 432 790 66 154 85 201 87 210 1 6 5 16 10 23 4 7 11 25 16 40 5
15 25 72 45 127 30 82 93 281 111 345 62 234 118 477 130 565 4 30 10 66 18
115 6 34 13 84 22 155 3 33 8 69 10 80 2 11 6 53 9 95 4 41 8 98 11 125 3 28
8 379 11 780 l5 730 -74 19 c-40 10 -89 25 -108 33 -76 34 -125 57 -130 62 -3
3 -17 12 -32 20 -15 8 -37 22 -47 33 -11 10 -23 18 -27 18 -15 0 -161 159
-198 214 -41 62 -106 196 -106 219 0 7 -3 17 -7 21 -4 3 -8 14 -9 24 -2 9 -8
35 -14 57 l-11 40 -1715 0 -1715 0 -10 -40z m1101 -136 c0 -4 -211 -355 -240
-399 -5 -8 -20 -32 -32 -54 -13 -21 -28 -46 -33 -55 -16 -26 -159 -260 -170
-279 -6 -9 -44 -72 -85 -140 -41 -67 -79 -130 -85 -140 -5 -9 -34 -56 -63
-104 l-53 -87 -47 1 c-26 1 -60 -2 -77 -6 -30 -7 -30 -6 -81 96 -28 57 -114
228 -191 381 l-141 278 45 42 c105 97 206 245 265 391 16 39 33 73 38 76 11 7
950 7 950 -1z m161 2 c4 -1 28 -63 54 -138 27 -76 53 -149 58 -163 6 -14 11
-27 11 -30 1 -3 9 -25 18 -50 9 -25 30 -85 48 -135 17 -49 35 -99 40 -110 5
-11 27 -74 50 -140 23 -66 62 -176 86 -244 44 -121 44 -124 25 -137 -26 -19
-59 -73 -65 -108 -3 -16 -7 -30 -8 -32 -2 -1 -33 -5 -68 -9 -36 -3 -81 -7
-100 -10 -19 -2 -64 -7 -100 -10 -36 -3 -83 -8 -105 -11 -22 -2 -64 -7 -92
-10 -76 -7 -131 -13 -188 -19 -27 -3 -77 -8 -110 -10 -33 -2 -60 -5 -60 -6 0
0 -11 -2 -25 -4 -296 -30 -277 -30 -285 -3 -4 12 -21 40 -38 62 -27 34 -29 41
-17 60 7 11 83 136 168 276 85 140 220 361 298 490 79 129 161 264 181 299 21
35 46 75 55 90 10 14 26 43 38 63 11 20 27 38 37 40 14 3 77 2 94 -1z m454
-91 c105 -51 269 -131 365 -177 96 -47 185 -89 198 -94 19 -7 22 -16 22 -61 0
-36 7 -64 20 -86 l21 -34 -58 -71 c-31 -40 -62 -77 -68 -83 -5 -6 -26 -30 -45
-54 -19 -24 -48 -60 -65 -79 -16 -20 -34 -42 -40 -49 -5 -7 -21 -25 -35 -40
-14 -15 -41 -48 -60 -72 -19 -25 -44 -56 -57 -70 -12 -14 -30 -35 -40 -48 -16
-20 -22 -22 -46 -13 -16 6 -49 11 -75 11 l-47 0 -32 93 c-17 50 -52 151 -78
222 -26 72 -62 173 -80 225 -18 52 -54 154 -80 225 -26 72 -51 141 -55 155 -5
14 -20 56 -34 95 -39 105 -42 101 77 98 l102 -1 190 -92z m639 80 c3 -8 9 -40
15 -70 6 -30 14 -66 17 -80 3 -14 7 -36 10 -50 2 -14 6 -30 8 -36 3 -6 -10
-22 -27 -34 -18 -13 -36 -29 -40 -37 -4 -7 -12 -13 -17 -13 -5 0 -69 29 -142
64 -73 35 -205 98 -293 141 -224 107 -245 118 -245 124 0 3 160 6 355 6 307 0
356 -2 359 -15z m913 7 c5 -3 23 -25 39 -49 16 -24 32 -45 35 -48 4 -3 16 -25
27 -50 38 -83 124 -204 206 -289 l81 -84 -80 7 c-44 4 -93 9 -110 11 -26 3
-66 7 -205 20 -19 2 -66 6 -105 9 -38 4 -88 9 -110 11 -46 6 -120 14 -185 19
-50 4 -154 15 -185 20 -14 2 -22 14 -27 40 -5 21 -18 52 -30 68 -24 34 -93 69
-138 70 -30 1 -36 9 -46 65 -12 67 -35 166 -39 173 -3 5 2 10 12 12 31 6 849
1 860 -5z m-447 -482 c88 -7 183 -16 210 -20 48 -7 204 -22 305 -30 22 -2 63
-6 90 -9 28 -3 75 -8 105 -11 115 -11 144 -16 151 -26 3 -6 14 -56 24 -112 21
-117 21 -116 34 -182 23 -112 30 -149 37 -195 3 -19 7 -43 10 -53 3 -10 7 -31
9 -48 3 -17 6 -38 9 -48 3 -9 8 -34 11 -56 3 -23 8 -52 11 -65 3 -14 7 -36 10
-50 2 -14 9 -45 14 -70 5 -25 12 -61 15 -80 3 -19 12 -69 20 -110 16 -81 22
-115 31 -170 3 -19 7 -37 9 -40 2 -3 6 -26 10 -50 3 -25 13 -79 22 -120 8 -41
17 -90 20 -109 l5 -34 -43 50 c-24 27 -63 71 -86 98 -23 28 -51 61 -63 75 -12
14 -40 47 -63 74 -23 27 -56 66 -73 85 -29 34 -111 130 -212 249 -24 28 -54
64 -67 79 -34 39 -60 70 -108 128 -23 27 -60 70 -82 95 -22 26 -61 71 -86 101
-161 189 -193 227 -213 249 -12 14 -44 52 -71 85 -28 33 -55 65 -61 70 -5 6
-35 39 -65 75 -30 36 -61 73 -70 83 -16 17 -15 21 8 63 l25 45 57 -6 c31 -3
81 -8 111 -10z m-2856 -435 l189 -378 -24 -38 c-27 -44 -30 -56 -30 -103 1
-36 37 -121 52 -121 22 0 24 5 -361 -773 -100 -203 -183 -367 -185 -365 -3 2
-7 197 -10 434 -3 236 -5 434 -6 439 0 6 0 19 1 30 1 17 -2 287 -11 965 l-2
174 39 21 c21 12 64 38 94 58 30 20 57 36 60 36 3 0 90 -171 194 -379z m2481
320 c9 0 15 -9 16 -22 1 -13 2 -34 4 -48 2 -14 6 -54 9 -90 3 -36 8 -85 11
-110 3 -25 7 -74 10 -110 5 -61 8 -96 20 -210 12 -112 21 -214 30 -325 3 -33
7 -71 9 -85 3 -14 7 -63 11 -110 3 -47 8 -98 10 -115 3 -16 7 -59 10 -95 13
-166 17 -205 21 -212 5 -8 -63 -45 -69 -37 -3 5 -117 139 -132 155 -5 6 -21
24 -35 40 -53 63 -199 229 -225 258 -6 6 -46 53 -90 105 -44 51 -99 114 -122
140 -24 25 -43 50 -43 54 0 4 10 21 21 37 32 43 34 118 4 177 l-24 47 36 45
c21 25 71 87 113 136 41 50 116 140 165 200 49 61 94 115 100 121 5 6 23 27
39 47 29 34 31 35 57 21 16 -8 35 -14 44 -14z m152 -14 c7 -12 86 -106 118
-140 6 -6 30 -36 55 -66 24 -30 54 -64 65 -75 11 -11 38 -43 60 -70 22 -27 47
-57 55 -66 8 -9 26 -30 40 -46 26 -32 58 -68 211 -248 52 -61 114 -135 139
-165 25 -30 56 -66 70 -81 14 -14 34 -37 44 -50 11 -13 33 -40 50 -60 17 -19
42 -49 55 -65 14 -16 48 -56 76 -89 29 -33 61 -70 71 -83 10 -13 28 -34 39
-46 11 -12 39 -44 62 -72 56 -66 77 -92 118 -139 46 -53 46 -59 5 -61 -19 -1
-93 -5 -165 -8 -216 -11 -295 -15 -410 -21 -60 -3 -153 -8 -205 -10 -52 -3
-145 -7 -206 -10 l-112 -5 -11 32 c-21 59 -96 118 -152 118 -11 0 -19 3 -20 8
0 4 -2 15 -4 25 -4 20 -14 126 -20 217 -3 30 -7 73 -10 95 -2 22 -7 74 -10
115 -3 41 -8 91 -11 110 -3 19 -7 58 -9 85 -3 52 -14 165 -21 225 -2 19 -6 67
-9 105 -3 39 -7 86 -10 105 -2 19 -7 67 -10 105 -3 39 -8 81 -10 95 -2 14 -6
64 -10 111 -3 47 -8 97 -10 110 -8 45 68 57 92 15z m1319 -66 l112 -53 -3
-646 c-2 -355 -5 -654 -7 -663 -5 -22 -15 -32 -15 -15 0 6 -4 30 -8 52 -4 22
-9 49 -10 60 -4 19 -20 103 -30 155 -3 14 -8 39 -10 55 -3 17 -19 100 -35 185
-16 85 -32 169 -35 185 -2 17 -7 41 -10 55 -27 139 -31 158 -41 220 -3 19 -10
54 -15 78 -5 23 -12 59 -15 80 -3 20 -7 45 -10 55 -3 10 -7 30 -9 45 -2 15
-13 73 -24 130 -12 57 -21 105 -21 107 0 4 19 -4 186 -85z m-4385 -12 c4 -40
9 -393 24 -1692 4 -366 4 -368 -15 -351 -22 20 -36 64 -45 135 -5 43 -12 85
-15 85 0 0 -3 20 -6 45 -2 25 -6 59 -8 75 -3 17 -7 59 -10 95 -4 36 -9 77 -11
92 -14 77 -18 278 -19 857 l-1 633 45 19 c55 22 60 22 61 7z m2065 -663 c3
-12 18 -35 33 -49 l28 -27 -80 -162 c-165 -335 -424 -863 -443 -903 l-19 -41
-68 2 -68 1 -39 60 c-21 32 -43 64 -47 69 -5 6 -12 17 -16 25 -7 16 -27 47
-40 64 -5 6 -32 47 -60 92 -29 44 -90 140 -137 212 -113 176 -118 183 -131
210 -7 12 -16 22 -21 22 -4 0 -8 5 -8 10 0 6 -25 48 -55 94 l-56 84 29 30 c25
26 38 50 56 104 2 9 13 16 23 16 20 -1 142 11 188 18 16 3 56 7 90 9 33 3 74
6 90 9 17 2 59 7 95 10 67 6 100 10 210 21 109 12 113 12 180 19 130 13 164
17 166 19 1 1 23 3 48 4 40 1 47 -1 52 -22z m424 -281 c47 -54 92 -105 100
-114 14 -15 78 -89 141 -164 13 -16 35 -41 49 -56 14 -15 36 -40 49 -56 76
-90 137 -160 145 -166 6 -4 3 -22 -8 -45 -9 -22 -18 -53 -18 -70 -1 -31 -15
-41 -68 -48 -8 -1 -46 -10 -85 -19 -38 -10 -80 -20 -92 -22 -12 -2 -34 -9 -48
-14 -14 -5 -25 -7 -25 -5 0 2 -11 0 -25 -5 -24 -9 -40 -13 -110 -26 -16 -3
-51 -11 -77 -19 -27 -8 -48 -12 -48 -9 0 3 -6 2 -12 -3 -7 -4 -19 -8 -26 -9
-7 -1 -72 -17 -144 -34 -73 -18 -143 -34 -157 -37 -14 -2 -28 -6 -31 -8 -4 -2
-20 -7 -36 -9 -52 -10 -68 -14 -173 -40 -57 -15 -107 -23 -110 -19 -3 4 -18
22 -33 38 -26 28 -27 34 -16 63 7 18 16 32 20 32 4 0 8 5 8 11 0 12 249 525
315 649 11 19 20 40 21 45 1 6 40 84 86 175 58 115 88 164 98 162 40 -10 68
-9 100 3 35 12 35 12 80 -35 25 -26 83 -92 130 -146z m-1599 -114 c52 -80 121
-188 155 -240 124 -192 350 -545 358 -558 5 -8 -4 -26 -22 -47 -17 -18 -33
-47 -37 -64 -4 -17 -12 -31 -18 -32 -7 -1 -28 -2 -47 -4 -19 -1 -80 -5 -135
-10 -120 -9 -153 -11 -270 -19 -49 -4 -115 -8 -145 -11 -144 -11 -220 -17
-280 -21 -64 -4 -96 -6 -272 -19 -62 -5 -88 -4 -88 4 0 6 4 11 10 11 5 0 9 3
8 8 -2 4 27 68 64 142 36 74 163 331 281 571 l214 435 65 0 66 -1 93 -145z
m3473 -711 c-100 -201 -339 -689 -392 -799 -19 -41 -41 -82 -48 -90 -6 -8 -14
-24 -15 -34 -4 -17 -12 -20 -67 -19 l-63 1 -33 53 c-98 160 -266 450 -266 459
0 5 -4 10 -8 10 -5 0 -16 15 -25 33 -23 45 -58 104 -90 154 -15 24 -27 45 -27
49 0 3 -8 18 -19 32 -10 15 -31 50 -46 77 -16 28 -32 52 -36 55 -5 3 4 19 19
35 15 17 35 48 43 70 11 31 21 40 39 42 14 1 84 4 155 8 72 3 159 8 195 10 36
2 126 7 200 10 74 4 167 8 205 10 39 2 133 7 210 10 77 4 142 9 145 12 2 2 6
0 8 -5 1 -5 -36 -87 -84 -183z m-1410 75 c9 -3 16 -12 16 -18 0 -18 50 -63 85
-77 17 -7 54 -13 83 -13 l53 -1 273 -462 273 -461 -23 -27 c-25 -29 -46 -30
-114 -2 -8 3 -150 56 -315 117 -165 61 -309 115 -320 120 -20 9 -546 204 -555
206 -3 0 -16 5 -30 11 -14 6 -56 22 -95 36 -38 14 -108 40 -155 57 -47 17 -89
33 -95 34 -5 2 -21 8 -35 14 -22 10 -228 88 -255 97 -5 1 -19 6 -30 10 -14 4
-22 16 -23 36 -1 16 0 29 3 29 3 0 83 18 178 41 94 23 179 43 187 44 8 2 15 4
15 5 0 1 11 3 25 6 14 2 115 26 225 53 178 43 372 90 400 96 30 6 91 19 98 21
4 1 8 2 10 4 1 1 14 4 30 6 15 3 37 9 50 14 12 5 23 9 24 9 1 1 8 -2 17 -5z
m1491 -56 c-3 -29 -7 -65 -10 -81 -3 -15 -9 -55 -15 -90 -15 -90 -59 -305 -72
-352 -6 -22 -12 -44 -14 -50 -27 -123 -178 -607 -188 -605 -123 32 -130 36
-139 76 -5 21 -22 56 -38 76 -16 20 -29 39 -29 42 0 3 81 171 181 373 100 203
213 434 252 515 40 82 73 148 75 148 2 0 1 -24 -3 -52z m-3091 -338 c34 -68
84 -102 153 -105 l57 -3 24 -73 c12 -41 25 -81 27 -89 2 -8 4 -16 5 -17 2 -2
3 -6 4 -10 1 -5 15 -48 31 -98 16 -49 29 -94 31 -100 1 -5 16 -55 34 -110 18
-55 33 -104 35 -110 1 -5 5 -17 8 -25 7 -18 108 -342 146 -470 6 -19 2 -29
-13 -41 -19 -15 -22 -15 -46 0 -14 9 -29 20 -35 24 -5 5 -91 64 -190 133 -99
68 -187 130 -195 137 -9 7 -22 16 -30 20 -8 4 -121 81 -250 172 -282 197 -245
172 -355 250 -49 36 -98 68 -107 71 -10 4 -18 10 -18 15 0 5 -6 9 -14 9 -8 0
-16 4 -18 8 -1 4 -39 32 -83 62 -44 30 -84 58 -90 63 -15 11 -225 157 -265
184 -54 36 -74 52 -69 57 2 2 40 7 84 10 123 10 204 16 275 21 36 2 103 8 150
11 47 4 113 8 147 8 35 1 63 3 63 6 0 3 19 5 43 6 23 0 83 4 132 7 50 4 131
10 180 13 50 3 91 7 93 9 13 12 37 -8 56 -45z m511 -66 c83 -30 159 -59 170
-64 11 -5 58 -22 105 -39 47 -18 93 -36 102 -41 10 -6 22 -10 27 -10 5 0 22
-5 38 -12 15 -6 33 -12 38 -14 10 -2 539 -200 565 -211 8 -3 20 -7 25 -9 9 -2
144 -52 320 -119 33 -12 138 -51 233 -86 165 -61 172 -65 168 -89 -2 -14 -5
-35 -5 -46 -1 -16 -9 -23 -33 -28 -18 -3 -80 -22 -138 -40 -191 -62 -435 -138
-440 -139 -3 0 -21 -7 -40 -15 -19 -8 -37 -14 -40 -14 -3 -1 -9 -2 -15 -4 -5
-1 -57 -17 -115 -34 -58 -18 -136 -43 -175 -55 -38 -13 -117 -38 -175 -56 -58
-18 -150 -46 -205 -64 l-100 -32 -41 36 c-44 38 -60 44 -135 43 l-45 -1 -18
57 c-42 141 -98 318 -103 332 -3 8 -7 20 -8 26 -3 14 -102 329 -115 364 -7 20
-48 151 -98 318 -6 18 1 32 33 67 24 26 46 41 55 39 8 -3 83 -30 165 -60z
m-1833 -28 c4 -39 -7 -40 -14 -1 -4 21 -1 35 8 35 1 0 4 -15 6 -34z m150 -49
c48 -34 178 -125 290 -202 181 -125 258 -179 393 -273 288 -201 531 -370 549
-382 12 -8 115 -80 229 -159 199 -138 229 -166 197 -186 -11 -7 -105 -11 -430
-20 -124 -3 -277 -8 -340 -10 -63 -3 -211 -7 -329 -10 -118 -3 -217 -7 -219
-10 -25 -24 -95 106 -222 410 -18 44 -39 94 -46 110 -27 65 -108 308 -158 476
-20 67 -29 319 -12 319 6 0 50 -28 98 -63z m3935 -731 c13 -5 1 -41 -52 -166
-138 -328 -340 -692 -533 -967 -37 -52 -74 -104 -82 -116 -81 -118 -249 -320
-237 -287 10 29 179 446 194 480 9 19 16 41 16 48 0 6 4 12 9 12 4 0 8 6 8 13
0 7 18 58 41 112 22 55 72 179 110 275 39 96 74 184 79 195 19 43 40 94 80
195 l41 105 43 1 c69 3 148 56 162 110 5 20 7 20 57 7 29 -7 57 -15 64 -17z
m-367 -93 c0 -1 -11 -27 -25 -57 -14 -30 -25 -60 -25 -65 0 -6 -5 -19 -10 -29
-6 -9 -39 -89 -74 -177 -86 -216 -155 -386 -165 -410 -5 -11 -28 -67 -51 -125
-23 -58 -46 -114 -50 -125 -5 -11 -11 -27 -14 -35 -3 -8 -54 -135 -113 -282
l-108 -267 -85 -90 c-46 -50 -89 -91 -95 -90 -5 0 -40 46 -77 102 -37 56 -99
149 -139 207 -39 58 -108 159 -153 225 -44 66 -83 122 -86 125 -16 16 -90 130
-90 138 0 6 -4 12 -8 14 -5 2 -57 75 -117 163 -59 88 -117 172 -128 187 l-20
28 20 17 c42 37 70 128 52 164 -7 13 0 20 34 32 56 20 144 48 165 52 9 2 18 4
20 5 1 2 7 4 12 5 6 1 12 4 15 5 3 1 10 4 15 5 6 1 12 4 15 5 3 1 8 3 13 4 4
1 34 10 67 21 33 10 62 19 65 20 8 2 114 36 130 42 8 3 20 7 26 8 6 2 78 24
160 51 82 26 154 49 159 50 6 1 60 18 120 37 61 20 186 59 280 89 l169 53 48
-49 c26 -27 48 -51 48 -53z m-1905 -459 c3 -18 15 -43 25 -57 l20 -26 -154
-313 c-84 -172 -206 -420 -270 -550 -107 -219 -128 -254 -138 -229 -1 5 -25
34 -53 64 -96 105 -144 163 -224 267 -45 58 -95 122 -111 142 -17 20 -30 41
-30 46 0 6 -4 12 -9 14 -8 3 -225 327 -226 338 0 3 -8 16 -17 30 -29 44 -139
243 -141 254 -1 7 28 12 78 13 95 2 350 10 565 18 85 2 252 7 370 11 118 3
216 6 217 7 1 1 22 2 46 2 43 1 46 -1 52 -31z m186 -128 c44 1 57 -2 65 -17 7
-14 179 -268 264 -389 25 -36 242 -354 387 -568 l158 -233 -75 -70 c-41 -38
-81 -69 -90 -70 -22 -1 -60 -8 -230 -45 -14 -2 -40 -7 -59 -10 -19 -2 -37 -7
-41 -9 -4 -3 -25 -7 -46 -11 -40 -5 -46 -7 -129 -25 -27 -5 -59 -12 -70 -14
-11 -2 -45 -8 -75 -14 -30 -6 -67 -12 -82 -15 -15 -3 -31 -7 -36 -10 -4 -2
-26 -7 -47 -10 -22 -3 -51 -8 -65 -11 -21 -5 -41 8 -120 77 -52 45 -155 142
-229 214 l-134 131 41 84 c22 46 112 231 201 411 89 180 161 332 161 337 0 5
3 11 8 13 7 3 113 215 126 252 5 15 11 17 34 10 15 -5 52 -8 83 -8z m648
-1418 c-13 -11 -40 -34 -59 -51 -20 -18 -58 -50 -85 -72 -28 -21 -52 -42 -55
-45 -10 -13 -277 -210 -283 -210 -16 0 -207 141 -207 152 0 4 -6 8 -12 8 -7 0
-33 18 -58 40 -35 32 -40 40 -25 41 11 0 27 2 35 4 14 2 157 32 191 40 9 2 33
6 53 9 19 3 55 10 78 15 49 11 106 23 128 26 8 1 29 5 45 8 38 9 72 16 110 23
17 2 55 10 85 17 76 18 87 17 59 -5z"/>
</g>
</svg>
